<svg viewBox="239.880059970015 504.00000000000006 1517.2413793103447 492" xmlns:xlink="http://www.w3.org/1999/xlink" version="1.1" xmlns="http://www.w3.org/2000/svg" style="max-height: 500px" width="1517.2413793103447" height="492"><rect fill="#ffffff" height="1500" width="2000"/><g transform="matrix(0.75,0,0,0.75,249.090909090909,514.1604621853112)"><svg xmlns:xlink="http://www.w3.org/1999/xlink" xmlns="http://www.w3.org/2000/svg" width="2000" height="626" preserveAspectRatio="xMidYMid meet" data-background-color="#ffffff" viewBox="0 0 396 124"><g transform="matrix(1,0,0,1,0.2400000000000091,0.28775865606266393)" id="tight-bounds"><svg width="395.52" height="123.42424422541448" viewBox="0 0 395.52 123.42424422541448"><g><svg width="395.52" height="123.42424422541448" viewBox="0 0 630.7805354702812 196.83861969690966"><g transform="matrix(1,0,0,1,235.26053547028113,57.73123082583981)"><svg width="395.52" height="81.37615804523004" viewBox="0 0 395.52 81.37615804523004"><g id="textblocktransform"><svg id="textblock" width="395.52" height="81.37615804523004" viewBox="0 0 395.52 81.37615804523004"><g><svg width="395.52" height="81.37615804523004" viewBox="0 0 395.52 81.37615804523004"><g transform="matrix(1,0,0,1,0,0)"><svg data-palette-color="#ff4136" height="81.37615804523004" viewBox="2.53 -39.25 192.33 39.58" width="395.52"><path id="text-0" data-fill-palette-color="primary" class="wordmark-text-0" fill="#ff4136" transform="matrix(1,0,0,1,0,0)" opacity="1" d="M2.53-29.63L2.53 0 7.6 0 7.6-24.7 6.5-29.63 2.53-29.63ZM19.1-17.78L19.1 0 24.15 0 24.15-18.13Q24.15-23.18 22.35-26.54 20.55-29.9 15.5-29.9L15.5-29.9Q11.05-29.9 7.96-26.61 4.88-23.33 4.88-19L4.88-19 7.55-17.65Q7.55-21.75 9.3-24.05 11.05-26.35 13.88-26.35L13.88-26.35Q16.68-26.35 17.89-24.24 19.1-22.13 19.1-17.78L19.1-17.78ZM35.6-17.78L35.6 0 40.65 0 40.65-18.13Q40.65-23.18 38.88-26.54 37.1-29.9 32.08-29.9L32.08-29.9Q27.6-29.9 24.51-26.59 21.43-23.28 21.43-19L21.43-19 24.13-17.65Q24.13-21.75 25.88-24.05 27.63-26.35 30.43-26.35L30.43-26.35Q33.25-26.35 34.43-24.24 35.6-22.13 35.6-17.78L35.6-17.78ZM55.6 0.28L55.6 0.28Q57.77 0.28 59.49-0.11 61.2-0.5 62.45-1.11 63.7-1.73 64.5-2.43 65.3-3.13 65.62-3.75L65.62-3.75 66.05 0 70.27 0 70.27-18.85Q70.27-22.85 68.84-25.28 67.4-27.7 64.65-28.8 61.9-29.9 57.95-29.9L57.95-29.9Q55.6-29.9 53.55-29.41 51.5-28.93 49.89-27.88 48.27-26.83 47.19-25.13 46.1-23.43 45.7-20.98L45.7-20.98 50.65-19.65Q51.02-22.13 52.01-23.61 53-25.1 54.52-25.78 56.05-26.45 57.97-26.45L57.97-26.45Q60.2-26.45 61.82-25.7 63.45-24.95 64.32-23.34 65.2-21.73 65.2-19.1L65.2-19.1 65.2-17.43 55.52-17.43Q53.2-17.43 51.32-17 49.45-16.57 48.14-15.59 46.82-14.6 46.12-12.91 45.42-11.23 45.42-8.68L45.42-8.68Q45.42-6.03 46.14-4.29 46.85-2.55 48.21-1.55 49.57-0.55 51.44-0.14 53.3 0.28 55.6 0.28ZM56.7-3.05L56.7-3.05Q55.42-3.05 54.3-3.31 53.17-3.58 52.32-4.2 51.47-4.83 51.01-5.95 50.55-7.08 50.55-8.88L50.55-8.88Q50.55-10.63 51.02-11.75 51.5-12.88 52.34-13.49 53.17-14.1 54.3-14.34 55.42-14.58 56.7-14.58L56.7-14.58 65.12-14.58 65.12-6.85Q64.7-5.93 63.57-5.05 62.45-4.17 60.71-3.61 58.97-3.05 56.7-3.05ZM87.9 0.33L87.9 0.33Q90.65 0.33 93.15-0.3L93.15-0.3 93.15-3.73Q91.42-3.15 89.6-3.15L89.6-3.15Q87.55-3.15 86.42-4.03 85.3-4.9 85.3-7.63L85.3-7.63 85.3-26.08 95.1-26.08 95.1-29.63 85.3-29.63 85.3-36.33 80.22-36.33 80.22-29.63 73.3-29.63 73.3-26.08 80.22-26.08 80.22-6.45Q80.22-2.55 82.42-1.11 84.62 0.33 87.9 0.33ZM99.54-39.25L99.54 0 104.62 0 104.62-39.25 99.54-39.25ZM118.19-16.93L118.19 0 123.24 0 123.24-17.1Q123.24-23.18 121.03-26.55 118.82-29.93 113.69-29.93L113.69-29.93Q108.52-29.93 105.31-26.7 102.09-23.48 102.09-19.83L102.09-19.83 104.52-18.28Q104.52-21.78 106.62-24.08 108.72-26.38 111.87-26.38L111.87-26.38Q114.99-26.38 116.59-24.23 118.19-22.08 118.19-16.93L118.19-16.93ZM140.89 0.2L140.89 0.2Q146.74 0.2 149.79-1.8 152.84-3.8 152.84-7.9L152.84-7.9Q152.84-12.35 149.78-14.04 146.72-15.73 142.19-16.65L142.19-16.65Q138.37-17.53 135.88-18.48 133.39-19.43 133.39-22.03L133.39-22.03Q133.39-24.1 135.03-25.33 136.67-26.55 140.04-26.55L140.04-26.55Q143.54-26.55 145.58-24.85 147.62-23.15 148.04-19.88L148.04-19.88 152.52-21.4Q151.79-25.95 148.65-27.91 145.52-29.88 140.09-29.88L140.09-29.88Q134.64-29.88 131.52-27.86 128.39-25.85 128.39-22L128.39-22Q128.39-17.78 131.23-15.96 134.07-14.15 138.59-13.18L138.59-13.18Q142.57-12.3 145.19-11.34 147.82-10.38 147.82-7.55L147.82-7.55Q147.82-5.58 146.1-4.36 144.39-3.15 140.97-3.15L140.97-3.15Q137.34-3.15 135.2-4.78 133.07-6.4 132.64-10.15L132.64-10.15 128.17-8.63Q128.94-3.65 132.24-1.73 135.54 0.2 140.89 0.2ZM158.51-29.65L158.51 0 163.59 0 163.59-29.65 158.51-29.65ZM163.59-37.75L158.51-37.75 158.51-33.27 163.59-33.27 163.59-37.75ZM182.14 0.25L182.14 0.25 182.14-3.1Q178.34-3.1 176.21-5.88L176.21-5.88Q174.06-8.6 174.06-14.88L174.06-14.88Q174.06-21.5 176.29-24.05L176.29-24.05Q178.49-26.58 182.06-26.58L182.06-26.58Q185.74-26.58 187.79-24.18L187.79-24.18Q189.56-21.93 189.76-16.48L189.76-16.48 173.51-16.48 173.51-13.33 194.76-13.33Q194.86-14.08 194.86-14.95L194.86-14.95Q194.86-22.38 191.91-26.15L191.91-26.15Q188.94-29.93 182.06-29.93L182.06-29.93Q175.39-29.93 172.29-26.15L172.29-26.15Q169.16-22.4 169.16-14.88L169.16-14.88Q169.16-7.78 172.21-3.75L172.21-3.75Q175.24 0.25 182.14 0.25ZM182.14-3.1L182.14-3.1 182.14 0.25Q185.89 0.25 188.34-0.73L188.34-0.73Q190.79-1.7 192.34-3.85L192.34-3.85Q193.86-5.98 194.29-9.03L194.29-9.03 189.74-10.25Q189.31-8.05 188.46-6.3L188.46-6.3Q187.56-4.55 185.94-3.83L185.94-3.83Q184.31-3.1 182.14-3.1Z"/></svg></g></svg></g></svg></g></svg></g><g><svg width="196.83861969690966" height="196.83861969690966" viewBox="0 0 196.83861969690966 196.83861969690966"><g><svg/></g><g id="icon-0"><svg width="196.83861969690966" height="196.83861969690966" viewBox="0 0 196.83861969690966 196.83861969690966"><g><path stroke="transparent" fill="#ff4136" data-fill-palette-color="accent" d="M0 98.419c0-54.355 44.064-98.419 98.419-98.419 54.355 0 98.419 44.064 98.42 98.419 0 54.355-44.064 98.419-98.42 98.42-54.355 0-98.419-44.064-98.419-98.42zM98.419 189.5c50.302 0 91.081-40.778 91.081-91.081 0-50.302-40.778-91.081-91.081-91.08-50.302 0-91.081 40.778-91.08 91.08 0 50.302 40.778 91.081 91.08 91.081z"/></g><g transform="matrix(1,0,0,1,44.205508736319615,42.65746592764508)"><svg width="108.42760222427043" height="111.5236878416195" viewBox="0 0 108.42760222427043 111.5236878416195"><g><svg id="dxe-0" data-fill-palette-color="accent" class="icon-dxe-0" width="108.42760222427043" height="111.5236878416195" xml:space="preserve" viewBox="15.986 16 68.014 69.95609927046827" y="0" x="0" version="1.1" xmlns:xlink="http://www.w3.org/1999/xlink" xmlns="http://www.w3.org/2000/svg"><path data-fill-palette-color="accent" fill="#ff4136" d="M40.987 25.852V31.147H31.134V41H25.836V31.147H15.986V25.852H25.836V16H31.134V25.852z"/><path data-fill-palette-color="accent" fill="#ff4136" d="M62.5 25.512H80.5V32.192H62.5z"/><path data-fill-palette-color="accent" fill="#ff4136" d="M24.497 72.167L16.093 63.71 20.111 59.692 28.513 68.149 36.972 59.692 40.988 63.71 32.479 72.167 40.988 80.624 36.972 84.642 28.513 76.132 20.005 84.642 15.987 80.624z"/><path data-fill-palette-color="accent" fill="#ff4136" d="M84 68.877V74.172H59V68.877zM68.579 58.258C69.421 57.45 70.402 57.045 71.524 57.045 72.086 57.045 72.614 57.152 73.109 57.367S74.042 57.879 74.42 58.258C74.799 58.639 75.105 59.084 75.337 59.595 75.567 60.107 75.684 60.658 75.684 61.253 75.684 61.781 75.567 62.293 75.337 62.788 75.106 63.284 74.807 63.728 74.445 64.123A4 4 0 0 1 73.158 65.063 3.7 3.7 0 0 1 71.575 65.41 4.3 4.3 0 0 1 69.917 65.09 4.1 4.1 0 0 1 68.58 64.198 4.5 4.5 0 0 1 67.663 62.862 3.9 3.9 0 0 1 67.316 61.253C67.315 60.064 67.736 59.067 68.579 58.258M67.662 80.164C67.893 79.668 68.2 79.231 68.579 78.853A4.1 4.1 0 0 1 69.916 77.96 4.1 4.1 0 0 1 71.523 77.64C72.085 77.64 72.613 77.747 73.108 77.96 73.603 78.176 74.041 78.474 74.419 78.853 74.798 79.231 75.104 79.668 75.336 80.164 75.566 80.66 75.683 81.204 75.683 81.798 75.683 82.294 75.566 82.789 75.336 83.282A5.3 5.3 0 0 1 74.444 84.62 4.4 4.4 0 0 1 73.157 85.585 3.5 3.5 0 0 1 71.574 85.956 4 4 0 0 1 69.916 85.609 4.4 4.4 0 0 1 67.662 83.357 3.8 3.8 0 0 1 67.315 81.798C67.315 81.203 67.432 80.659 67.662 80.164"/></svg></g></svg></g></svg></g></svg></g></svg></g><defs/></svg><rect visibility="hidden" stroke="none" fill="none" height="123.42424422541448" width="395.52"/></g></svg></g></svg>